<svg width="20" height="20" viewBox="0 0 20 20" fill="none" xmlns="http://www.w3.org/2000/svg">
<path d="M11.5 3.99982L10.246 2.19943C9.599 1.27054 8.31072 1.06328 7.40504 1.74238L2.10014 5.7201C1.21641 6.38275 1.03718 7.63633 1.69982 8.52006L8.80743 17.9991C9.10546 18.3966 9.70152 18.3969 10 17.9998V17.9998" stroke="#0CFDE4" stroke-width="1.3" stroke-linecap="round" stroke-linejoin="round"/>
<path d="M9.99976 17.9998V17.9998C9.50906 18.3929 8.77629 18.1531 8.6129 17.546L5.92796 7.56946C5.64091 6.50285 6.27287 5.40548 7.33949 5.11842L13.9933 3.32771C14.986 3.06054 16.0196 3.58949 16.3835 4.55096L17.4998 7.49982" stroke="#0CFDE4" stroke-width="1.3" stroke-linecap="round" stroke-linejoin="round"/>
<rect x="10.5562" y="7.2944" width="8.3822" height="10.7995" rx="1.35" transform="rotate(4.51843 10.5562 7.2944)" stroke="#0CFDE4" stroke-width="1.3" stroke-linecap="round" stroke-linejoin="round"/>
</svg>
