<svg width="8" height="16" viewBox="0 0 8 16" fill="none" xmlns="http://www.w3.org/2000/svg">
<path d="M2.37946 15.3676C2.37946 15.305 2.37438 15.2424 2.37438 15.1798C2.37438 13.0561 2.37438 10.9324 2.37438 8.80871V8.60521H0.15625V5.96495H2.37438C2.37438 5.8919 2.37438 5.8345 2.37438 5.7771C2.37438 5.08834 2.35911 4.39436 2.38964 3.70559C2.42525 2.87594 2.66436 2.11413 3.23415 1.4932C3.67167 1.02359 4.21094 0.752257 4.82652 0.621809C5.32509 0.512233 5.82875 0.527886 6.3324 0.543539C6.7394 0.559193 7.15148 0.595719 7.55848 0.621809C7.589 0.621809 7.62461 0.632243 7.66022 0.642679V2.99596C7.60935 2.99596 7.56356 2.99596 7.51269 2.99596C7.00903 3.00117 6.50537 2.99596 6.00172 3.02205C5.40649 3.05335 5.07072 3.39252 5.04528 4.00301C5.01984 4.6396 5.03511 5.27618 5.03511 5.91277C5.03511 5.9232 5.04019 5.92842 5.05037 5.95451H7.57374L7.24305 8.59477H5.04528C5.04528 8.65217 5.03511 8.69391 5.03511 8.73566C5.03511 10.9115 5.03511 13.0926 5.03511 15.2685C5.03511 15.2998 5.03511 15.3363 5.04019 15.3676H2.38455H2.37946Z" fill="#B2A8EE"/>
</svg>
