<svg width="185" height="105" viewBox="0 0 186 106" fill="none" xmlns="http://www.w3.org/2000/svg">
<g clip-path="url(#clip0_102_883)">
<path d="M18.0312 35.6964C6.04641 35.6964 0.623535 40.5409 0.623535 50.4209V90.7045C0.623535 100.585 6.04641 105.428 18.0312 105.428C30.0159 105.428 35.5347 100.585 35.5347 90.7045V72.1769C35.5347 70.0855 34.2977 68.9465 32.2064 68.9465H21.1718C19.0805 68.9465 17.9373 70.0855 17.9373 72.1769V74.9322C17.9373 77.0225 19.0794 78.258 21.1718 78.258H23.4551V90.7045C23.4551 93.9328 21.9333 96.1186 18.0322 96.1186C14.1312 96.1186 12.7064 93.9328 12.7064 90.7045V50.4209C12.7064 47.1905 14.1322 45.0069 18.0322 45.0069C21.9322 45.0069 23.4551 47.1905 23.4551 50.4209V56.6919C23.4551 58.7822 24.6922 60.0178 26.7835 60.0178H32.2064C34.2977 60.0178 35.5347 58.7822 35.5347 56.6919V50.4209C35.5347 40.5409 30.017 35.6953 18.0312 35.6953V35.6964Z" fill="#B2A8EE"/>
<path d="M68.918 38.3967C68.6333 36.0879 67.4911 35.2183 65.5886 35.2183H53.2231C51.3206 35.2183 50.0835 36.0858 49.7977 38.3967L40.382 100.904C40.0013 103.213 41.1435 104.951 43.5216 104.951H48.6534C50.2733 104.951 51.696 104.18 51.9818 101.963L53.3128 91.1746H65.3998L66.8267 101.963C67.0155 104.177 68.5373 104.951 70.0676 104.951H75.1994C77.5775 104.951 78.7102 103.315 78.3358 100.904L68.918 38.3967V38.3967ZM54.4581 81.7389L56.4566 66.9062L58.9307 43.5976H59.7871L62.2591 66.9062L64.1617 81.7389H54.4581V81.7389Z" fill="#B2A8EE"/>
<path d="M121.139 0.608364L116.008 0.432314C114.388 0.378227 112.97 1.01349 112.617 3.51849C110.889 12.5893 109.29 19.4128 106.72 31.1C106.507 31.5497 100.025 65.0734 100.025 65.0734C99.1878 72.6998 98.7691 76.5135 97.9339 84.1398H97.0775C96.2391 76.5135 95.8204 72.6998 94.983 65.0734C93.0425 53.68 92.0733 47.9838 90.1328 36.5915C89.847 34.708 88.4201 34.1597 86.8044 34.1597H81.6726C79.3894 34.1597 78.1523 35.4928 78.533 37.4558C81.6716 54.4298 84.8101 71.4038 87.9487 88.3777C88.2345 90.2613 89.4716 90.9676 91.3741 90.9676H103.74C105.642 90.9676 106.784 90.2613 107.069 88.3777C107.639 85.2937 107.923 83.7517 108.495 80.6676C108.637 80.2932 108.74 79.904 108.8 79.5084C113.361 54.5974 118.615 29.944 124.016 5.20475C124.61 2.35189 123.515 0.691086 121.138 0.609425L121.139 0.608364Z" fill="#B2A8EE"/>
<path d="M109.469 102.111V99.3608C109.469 97.2768 108.03 96.1367 105.597 96.1367H90.7203C88.2894 96.1367 86.8467 97.3701 86.8467 99.4552V102.205C86.8467 104.289 88.2862 105.429 90.7203 105.429H105.597C108.03 105.429 109.469 104.196 109.469 102.111Z" fill="#0CFDE4"/>
<path d="M147.771 35.6964H124.655C122.563 35.6964 121.326 36.8439 121.326 38.9554V101.604C121.326 103.707 122.563 104.951 124.655 104.951H147.771C149.862 104.951 151.099 103.707 151.099 101.604V98.8294C151.099 96.7263 149.862 95.5703 147.771 95.5703H133.407V75.0096H144.156C146.247 75.0096 147.484 73.7666 147.484 71.6615V68.8871C147.484 66.784 146.247 65.6376 144.156 65.6376H133.407V45.0705H147.771C149.862 45.0705 151.099 43.8265 151.099 41.7224V38.948C151.099 36.8428 149.862 35.6953 147.771 35.6953V35.6964Z" fill="#B2A8EE"/>
<path d="M182.297 95.5756H167.931V38.9512C167.931 36.846 166.694 35.6921 164.603 35.6921H159.18C157.089 35.6921 155.852 36.8396 155.852 38.9512V101.604C155.852 103.707 157.089 104.951 159.18 104.951H182.295C184.389 104.951 185.625 103.707 185.625 101.604V98.8294C185.628 96.7263 184.391 95.5756 182.297 95.5756V95.5756Z" fill="#B2A8EE"/>
<path d="M109.469 102.111V99.3608C109.469 97.2768 108.029 96.1367 105.596 96.1367H90.7198C88.2889 96.1367 86.8462 97.3701 86.8462 99.4552V102.205C86.8462 104.289 88.2858 105.429 90.7198 105.429H105.596C108.029 105.429 109.469 104.196 109.469 102.111Z" fill="#0CFDE4"/>
</g>
<defs>
<clipPath id="clip0_102_883">
<rect width="185" height="105" fill="white" transform="translate(0.623535 0.429199)"/>
</clipPath>
</defs>
</svg>
