<svg width="16" height="16" viewBox="0 0 16 16" fill="none" xmlns="http://www.w3.org/2000/svg">
<path d="M11.4924 15.1718H4.32418C4.01894 15.1092 3.70352 15.0727 3.40845 14.9736C1.71433 14.3996 0.630703 12.876 0.625616 11.0549C0.615441 8.81643 0.625616 6.57795 0.625616 4.34468C0.625616 3.63504 0.778239 2.96193 1.12418 2.34622C1.91783 0.958256 3.10829 0.238186 4.68031 0.22775C6.83229 0.212096 8.98428 0.222532 11.1363 0.22775C11.4059 0.22775 11.6806 0.243405 11.9401 0.306019C13.5732 0.676491 14.6212 1.6992 15.0689 3.34806C15.1299 3.56721 15.1503 3.7968 15.191 4.02117V11.3784C15.1655 11.5297 15.1503 11.6863 15.1197 11.8376C14.7483 13.5126 13.7614 14.5874 12.1487 15.0518C11.935 15.1144 11.7111 15.1353 11.4975 15.1771L11.4924 15.1718ZM7.90574 3.60374C5.70288 3.60374 3.92736 5.43 3.9121 7.69458C3.90193 9.94871 5.70797 11.8011 7.90574 11.7959C10.1086 11.7959 11.8892 9.96959 11.8994 7.70502C11.9096 5.45088 10.1035 3.59852 7.90574 3.60374ZM13.3544 3.3585C13.3544 2.67495 12.81 2.11663 12.1436 2.11663C11.4822 2.11663 10.9277 2.68017 10.9277 3.3585C10.9277 4.03161 11.4822 4.60036 12.1385 4.60558C12.7948 4.60558 13.3493 4.04204 13.3493 3.3585H13.3544Z" fill="#B2A8EE"/>
<path d="M12.4897 3.3481C12.4897 3.14982 12.3269 2.98807 12.1335 2.99329C11.9504 2.99329 11.7927 3.16026 11.7876 3.3481C11.7876 3.54117 11.9504 3.71336 12.1386 3.71336C12.3269 3.71336 12.4897 3.54639 12.4897 3.3481Z" fill="#B2A8EE"/>
<path d="M7.90565 4.4856C9.63538 4.4856 11.0446 5.92574 11.0395 7.70504C11.0395 9.47392 9.63537 10.9141 7.91073 10.9141C6.181 10.9141 4.77178 9.47391 4.77687 7.69461C4.77687 5.92574 6.181 4.4856 7.90565 4.4856Z" fill="#B2A8EE"/>
<path d="M12.4893 3.34798C12.4893 3.54626 12.3265 3.71323 12.1383 3.71323C11.95 3.71323 11.7821 3.54104 11.7872 3.34798C11.7872 3.16014 11.95 2.99838 12.1332 2.99316C12.3265 2.99316 12.4893 3.1497 12.4893 3.34798Z" fill="#B2A8EE"/>
</svg>
