<svg width="12" height="12" viewBox="0 0 12 12" fill="none" xmlns="http://www.w3.org/2000/svg">
<path d="M9.44658 2.35152C9.23114 2.13608 8.87211 2.13608 8.64644 2.35152C8.43101 2.56695 8.43101 2.92598 8.64644 3.15165C9.35425 3.85947 9.74408 4.80327 9.74408 5.79828C9.74408 6.79329 9.35425 7.73717 8.64644 8.4449C8.43101 8.66034 8.43101 9.01937 8.64644 9.24504C8.75931 9.35792 8.90291 9.4092 9.04651 9.4092C9.1901 9.4092 9.33378 9.35792 9.44658 9.24504C10.3698 8.3218 10.8725 7.10103 10.8725 5.80842C10.8725 4.49535 10.3698 3.27465 9.44658 2.35143V2.35152Z" fill="#FAE8DC"/>
<path d="M2.2554 5.79828C2.2554 4.79296 2.64522 3.85939 3.35304 3.15165C3.56847 2.93622 3.56847 2.57719 3.35304 2.35152C3.13761 2.13608 2.77857 2.13608 2.5529 2.35152C1.62966 3.27476 1.12695 4.49552 1.12695 5.79832C1.12695 7.09092 1.65013 8.34249 2.56314 9.24513C2.67602 9.35801 2.81962 9.40928 2.96321 9.40928C3.10681 9.40928 3.25049 9.35801 3.36328 9.24513C3.57872 9.01946 3.57872 8.67066 3.35305 8.44499C2.65547 7.75758 2.2554 6.7932 2.2554 5.79815L2.2554 5.79828Z" fill="#FAE8DC"/>
<path d="M8.03075 3.77749C7.81532 3.55182 7.45629 3.55182 7.23061 3.76725C7.00494 3.98268 7.00494 4.34172 7.22038 4.56739C7.54868 4.89569 7.73332 5.33681 7.73332 5.79838C7.73332 6.26003 7.54869 6.70115 7.22038 7.02937C7.00494 7.25504 7.00494 7.60384 7.23061 7.82951C7.34349 7.94239 7.48709 7.99366 7.63068 7.99366C7.77428 7.99366 7.91796 7.94239 8.03075 7.82951C8.5745 7.28593 8.87201 6.5678 8.87201 5.79838C8.87201 5.03929 8.5745 4.32116 8.03075 3.7775V3.77749Z" fill="#FAE8DC"/>
<path d="M4.76883 3.76704C4.5534 3.55161 4.19437 3.55161 3.96869 3.76704C3.42494 4.31079 3.12744 5.03917 3.12744 5.79826C3.12744 6.56768 3.42494 7.28572 3.96861 7.82947C4.08148 7.94235 4.22508 7.99363 4.36868 7.99363C4.51227 7.99363 4.65595 7.94235 4.76875 7.82947C4.98418 7.61404 4.98418 7.25501 4.76875 7.02934C4.44044 6.70103 4.2558 6.25991 4.2558 5.79835C4.2558 5.33669 4.44043 4.89557 4.76875 4.56736C4.99451 4.35184 4.99451 3.99282 4.76883 3.76706L4.76883 3.76704Z" fill="#FAE8DC"/>
<path d="M6.86163 5.79825C6.86163 6.27422 6.47586 6.65997 5.99991 6.65997C5.52402 6.65997 5.13818 6.2742 5.13818 5.79825C5.13818 5.32236 5.52402 4.93652 5.99991 4.93652C6.47588 4.93652 6.86163 5.32236 6.86163 5.79825Z" fill="#FAE8DC"/>
</svg>
