<svg width="89" height="51" viewBox="0 0 89 51" fill="none" xmlns="http://www.w3.org/2000/svg">
<path d="M8.33631 17.687C2.59603 17.687 0 19.9928 0 24.6979V43.8795C0 48.5846 2.59603 50.8903 8.33631 50.8903C14.0766 50.8903 16.7178 48.5846 16.7178 43.8795V35.0562C16.7178 34.0597 16.1244 33.5179 15.1247 33.5179H9.8391C8.83617 33.5179 8.29116 34.0597 8.29116 35.0562V36.3687C8.29116 37.3652 8.83939 37.9521 9.8391 37.9521H10.9323V43.8795C10.9323 45.4177 10.2035 46.4561 8.33631 46.4561C6.4691 46.4561 5.78543 45.4145 5.78543 43.8795V24.6979C5.78543 23.1596 6.4691 22.1212 8.33631 22.1212C10.2035 22.1212 10.9323 23.1596 10.9323 24.6979V27.6841C10.9323 28.6806 11.5257 29.2675 12.5254 29.2675H15.1214C16.1244 29.2675 16.7145 28.6806 16.7145 27.6841V24.6979C16.7145 19.9928 14.0734 17.687 8.33309 17.687H8.33631Z" fill="#B2A8EE"/>
<path d="M32.7065 18.9739C32.5711 17.8742 32.0229 17.4614 31.1134 17.4614H25.1926C24.2799 17.4614 23.6898 17.8742 23.5511 18.9739L19.0427 48.7395C18.8589 49.8392 19.4071 50.668 20.5455 50.668H23.0029C23.7801 50.668 24.4605 50.3004 24.596 49.2458L25.2345 44.1086H31.0231L31.7068 49.2458C31.7971 50.3004 32.5259 50.668 33.258 50.668H35.7153C36.8537 50.668 37.3955 49.8876 37.2181 48.7395L32.7098 18.9739H32.7065ZM25.7827 39.6131L26.7405 32.5506L27.924 21.4506H28.3336L29.5171 32.5506L30.4298 39.6131H25.7827Z" fill="#B2A8EE"/>
<path d="M57.7125 0.978888L55.2551 0.89504C54.4779 0.869241 53.8007 1.17238 53.633 2.36558C52.8042 6.6837 52.0399 9.93437 50.808 15.5005C50.7048 15.7134 47.6025 31.6797 47.6025 31.6797C47.2026 35.3109 47.0026 37.1265 46.5995 40.7578H46.19C45.7869 37.1265 45.5869 35.3109 45.187 31.6797C44.2583 26.2555 43.7939 23.5434 42.8651 18.1159C42.7265 17.2194 42.046 16.9582 41.272 16.9582H38.8147C37.7214 16.9582 37.1281 17.5935 37.3119 18.5287C38.8147 26.6102 40.3175 34.695 41.8203 42.7765C41.9589 43.673 42.5491 44.0084 43.4617 44.0084H49.3826C50.2952 44.0084 50.8402 43.673 50.9757 42.7765C51.2498 41.3092 51.3853 40.5739 51.6594 39.1066C51.7271 38.9293 51.7755 38.7422 51.8045 38.5552C53.9877 26.6941 56.5064 14.9523 59.0895 3.1718C59.3733 1.81413 58.8508 1.02403 57.7125 0.982111V0.978888Z" fill="#B2A8EE"/>
<path d="M52.1239 49.3131V48.0038C52.1239 47.0105 51.4337 46.4688 50.2696 46.4688H43.1458C41.9816 46.4688 41.2915 47.0557 41.2915 48.0489V49.3582C41.2915 50.3515 41.9816 50.8933 43.1458 50.8933H50.2696C51.4337 50.8933 52.1239 50.3064 52.1239 49.3131Z" fill="#0CFDE4"/>
<path d="M70.4634 17.687H59.3924C58.3895 17.687 57.7993 18.232 57.7993 19.2382V49.0715C57.7993 50.0745 58.3927 50.6646 59.3924 50.6646H70.4634C71.4663 50.6646 72.0565 50.0712 72.0565 49.0715V47.7493C72.0565 46.7464 71.4631 46.1981 70.4634 46.1981H63.5847V36.4074H68.7316C69.7346 36.4074 70.3247 35.8173 70.3247 34.8143V33.4921C70.3247 32.4892 69.7314 31.9442 68.7316 31.9442H63.5847V22.1502H70.4634C71.4663 22.1502 72.0565 21.5569 72.0565 20.5572V19.2349C72.0565 18.232 71.4631 17.687 70.4634 17.687Z" fill="#B2A8EE"/>
<path d="M86.9973 46.2014H80.1186V19.2382C80.1186 18.2352 79.5253 17.687 78.5255 17.687H75.9295C74.9266 17.687 74.3364 18.232 74.3364 19.2382V49.0715C74.3364 50.0745 74.9298 50.6646 75.9295 50.6646H86.9973C88.0002 50.6646 88.5904 50.0712 88.5904 49.0715V47.7493C88.5904 46.7464 88.0002 46.2014 86.9973 46.2014Z" fill="#B2A8EE"/>
<path d="M52.1239 49.3131V48.0038C52.1239 47.0105 51.4337 46.4688 50.2696 46.4688H43.1458C41.9816 46.4688 41.2915 47.0557 41.2915 48.0489V49.3582C41.2915 50.3515 41.9816 50.8933 43.1458 50.8933H50.2696C51.4337 50.8933 52.1239 50.3064 52.1239 49.3131Z" fill="#0CFDE4"/>
</svg>
