<svg width="22" height="16" viewBox="0 0 22 16" fill="none" xmlns="http://www.w3.org/2000/svg">
<path d="M14.7059 14.1287C15.9472 13.7269 17.0257 13.1633 17.8245 12.1302C17.6566 12.2293 17.4887 12.3285 17.3208 12.4276C15.296 13.6277 13.1237 14.2539 10.7682 14.1391C9.15038 14.0608 7.59362 13.6799 6.07757 13.1216C5.3755 12.8659 4.69887 12.5424 4.01207 12.2554C3.97645 12.2398 3.94084 12.2293 3.90014 12.2346C4.67852 13.2416 5.73162 13.8104 6.91191 14.2069C6.54052 14.687 6.1844 15.1514 5.81302 15.6053C5.77232 15.6575 5.67566 15.6784 5.60443 15.6784C4.17486 15.6523 2.84195 15.2557 1.66676 14.4156C0.66453 13.6956 0.247361 12.6572 0.364372 11.4101C0.557695 9.32818 1.0003 7.29842 1.75833 5.35735C2.76564 2.78492 4.63273 1.28738 7.30873 0.869952C7.49188 0.843863 7.68011 0.82299 7.85817 0.838644C7.96501 0.843862 8.07184 0.922131 8.16851 1.0004C6.8356 1.37087 5.57391 1.85092 4.41906 2.6023C4.14943 2.77971 3.89505 2.97799 3.64068 3.1867C8.39744 1.02649 13.1389 1.04736 17.8703 3.25975C16.6035 2.23704 15.1485 1.61611 13.607 1.13606C13.7087 0.927348 13.8512 0.838644 14.0801 0.859516C16.9342 1.13607 18.9335 2.62317 20.0273 5.33126C20.7904 7.22015 21.2331 9.19774 21.4315 11.2327C21.5586 12.5529 21.0703 13.6121 19.9917 14.3426C18.8063 15.1462 17.4887 15.5427 16.0693 15.5897C15.9167 15.5897 15.8149 15.5531 15.7234 15.4279C15.3978 15.0053 15.062 14.5878 14.7008 14.1339L14.7059 14.1287ZM16.0082 9.30209C16.0082 8.23242 15.1485 7.31929 14.1564 7.32972C13.1644 7.33494 12.3148 8.24286 12.3148 9.29166C12.3148 10.3561 13.1695 11.2745 14.1615 11.2745C15.1637 11.2745 16.0184 10.3665 16.0133 9.30209H16.0082ZM5.69601 9.28122C5.69601 10.3509 6.53035 11.264 7.52749 11.2745C8.51445 11.2849 9.39458 10.3561 9.39458 9.30731C9.39458 8.24808 8.52971 7.32451 7.54275 7.32972C6.5507 7.32972 5.7011 8.23242 5.69601 9.28122Z" fill="#B2A8EE"/>
</svg>
