<svg width="9" height="9" viewBox="0 0 9 9" fill="none" xmlns="http://www.w3.org/2000/svg">
<path d="M8.63083 3.7312C8.64312 3.7101 8.66106 3.6922 8.67187 3.67036C8.72324 3.56684 8.79083 3.46701 8.82057 3.35735C8.93632 2.9315 8.88299 2.75341 8.55341 2.47401C8.4556 2.3911 8.32829 2.34179 8.21228 2.28096C8.16657 2.25716 8.1157 2.24269 8.0663 2.2265C7.82692 2.148 7.71411 1.97948 7.70895 1.73245C7.70772 1.67751 7.70378 1.62256 7.69862 1.56761C7.69223 1.50089 7.69125 1.43171 7.67331 1.36793C7.56075 0.967594 7.40124 0.750254 7.03111 0.691626C6.84629 0.662189 6.66737 0.682059 6.48599 0.729403C6.05073 0.842979 5.97258 0.814769 5.70862 0.472078C5.60048 0.331518 5.47293 0.217206 5.31834 0.129632C5.06519 -0.0138711 4.81623 -0.0175506 4.56013 0.124972C4.37876 0.225792 4.23645 0.364144 4.11726 0.530461C3.97815 0.724497 3.79825 0.81943 3.55493 0.757122C3.49865 0.742649 3.44262 0.72695 3.3856 0.71493C3.27525 0.691871 3.1644 0.671266 3.05381 0.649433C2.58021 0.678379 2.40768 0.812561 2.23515 1.22516C2.21401 1.27545 2.19877 1.32991 2.19189 1.38388C2.17665 1.50506 2.16608 1.62697 2.15797 1.74889C2.14323 1.97089 2.05524 2.14113 1.83429 2.22257C1.77973 2.24269 1.72738 2.2682 1.67258 2.28733C1.459 2.36191 1.28131 2.4853 1.13827 2.66167C1.03751 2.78579 0.985894 2.92096 0.995234 3.08359C1.00826 3.30633 1.07683 3.50625 1.19922 3.69269C1.4563 4.08468 1.44917 4.15901 1.20365 4.56278C1.12992 4.68396 1.0697 4.81741 1.02817 4.95282C0.934528 5.25798 1.01809 5.51751 1.26116 5.72749C1.39043 5.83935 1.53495 5.91956 1.69617 5.97647C1.92498 6.05743 2.13487 6.16266 2.15035 6.45016C2.15158 6.47444 2.15576 6.49873 2.15822 6.52301C2.17002 6.64469 2.16461 6.77077 2.19582 6.88705C2.33517 7.4044 2.5662 7.59205 3.09313 7.57341C3.2315 7.5685 3.36962 7.52558 3.50553 7.49099C3.74024 7.43138 3.9344 7.48142 4.08113 7.68159C4.11013 7.72108 4.14134 7.75886 4.17133 7.79762C4.3328 8.00588 4.5417 8.14276 4.79681 8.20752C4.85236 8.22151 4.91331 8.23549 4.96811 8.2269C5.178 8.19379 5.36897 8.11014 5.52454 7.96394C5.61105 7.88274 5.68773 7.78977 5.76048 7.69582C5.90253 7.51159 6.07826 7.42451 6.31223 7.48412C6.36556 7.49761 6.41865 7.51576 6.47297 7.52239C6.63296 7.54177 6.79419 7.57513 6.95345 7.56826C7.22183 7.55648 7.42803 7.4304 7.55239 7.17994C7.64013 7.00357 7.68019 6.82032 7.69199 6.62482C7.71804 6.18646 7.76326 6.14107 8.16633 5.97304C8.18328 5.96593 8.20122 5.96151 8.21843 5.95489C8.47157 5.85946 8.66942 5.69756 8.80287 5.46232C8.8304 5.41375 8.84662 5.35438 8.85178 5.2987C8.87758 5.02273 8.79329 4.77988 8.64631 4.54512C8.41357 4.17299 8.42045 4.09253 8.62985 3.73095L8.63083 3.7312ZM7.1744 3.10322C6.27635 4.00152 5.37757 4.8991 4.47731 5.79519C4.26152 6.01008 4.00199 6.00665 3.78424 5.79053C3.41951 5.42871 3.05577 5.06566 2.69326 4.70163C2.48755 4.49508 2.47674 4.21837 2.66352 4.02949C2.8508 3.84036 3.13049 3.84845 3.33718 4.05108C3.60163 4.31036 3.86485 4.57112 4.13495 4.83752C4.6754 4.30031 5.20848 3.77094 5.74106 3.24083C6.00404 2.97909 6.2648 2.71515 6.52876 2.45414C6.73447 2.25054 7.0144 2.24244 7.20217 2.43084C7.38969 2.61899 7.3806 2.89667 7.17415 3.10322H7.1744Z" fill="#0CFDE4"/>
</svg>
