<svg width="12" height="16" viewBox="0 0 12 16" fill="none" xmlns="http://www.w3.org/2000/svg">
<path d="M3 1.47461H9C9.53043 1.47461 10.0391 1.65898 10.4142 1.98717C10.7893 2.31536 11 2.76048 11 3.22461V12.1657C11 13.6447 11 14.3842 10.5173 14.676C10.0346 14.9678 9.37982 14.624 8.07033 13.9365L6.92967 13.3377C6.47425 13.0986 6.24654 12.979 6 12.979C5.75346 12.979 5.52575 13.0986 5.07033 13.3377L3.92967 13.9365C2.62018 14.624 1.96543 14.9678 1.48272 14.676C1 14.3842 1 13.6447 1 12.1657V3.22461C1 2.76048 1.21071 2.31536 1.58579 1.98717C1.96086 1.65898 2.46957 1.47461 3 1.47461Z" stroke="#B5ACED" stroke-width="1.5" stroke-linecap="round" stroke-linejoin="round"/>
</svg>
