<svg width="12" height="12" viewBox="0 0 14 15" fill="none" xmlns="http://www.w3.org/2000/svg">
<path d="M2.71429 9.18883C3.66106 9.18883 4.42857 8.42131 4.42857 7.47454C4.42857 6.52777 3.66106 5.76025 2.71429 5.76025C1.76751 5.76025 1 6.52777 1 7.47454C1 8.42131 1.76751 9.18883 2.71429 9.18883Z" stroke="#B2A8EE" stroke-width="1.5" stroke-linecap="round" stroke-linejoin="round"/>
<path d="M11.2856 4.90318C12.2323 4.90318 12.9999 4.13567 12.9999 3.1889C12.9999 2.24212 12.2323 1.47461 11.2856 1.47461C10.3388 1.47461 9.57129 2.24212 9.57129 3.1889C9.57129 4.13567 10.3388 4.90318 11.2856 4.90318Z" stroke="#B2A8EE" stroke-width="1.5" stroke-linecap="round" stroke-linejoin="round"/>
<path d="M11.2856 13.4745C12.2323 13.4745 12.9999 12.707 12.9999 11.7602C12.9999 10.8134 12.2323 10.0459 11.2856 10.0459C10.3388 10.0459 9.57129 10.8134 9.57129 11.7602C9.57129 12.707 10.3388 13.4745 11.2856 13.4745Z" stroke="#B2A8EE" stroke-width="1.5" stroke-linecap="round" stroke-linejoin="round"/>
<path d="M4.64307 6.54625L9.35735 4.11768" stroke="#B2A8EE" stroke-width="1.5" stroke-linecap="round" stroke-linejoin="round"/>
<path d="M4.64307 8.40332L9.35735 10.8319" stroke="#B2A8EE" stroke-width="1.5" stroke-linecap="round" stroke-linejoin="round"/>
</svg>
