<svg width="19" height="15" viewBox="0 0 19 15" fill="none" xmlns="http://www.w3.org/2000/svg">
<path d="M1.68436 5.27581C2.18802 5.53671 2.70185 5.7089 3.31234 5.72455C2.39152 5.04101 1.86751 4.15917 1.73015 3.06341C1.6284 2.2442 1.78611 1.46152 2.20328 0.725792C4.1823 3.12081 6.68532 4.43572 9.72252 4.64965C9.70726 4.26875 9.67673 3.91393 9.68691 3.55911C9.72761 2.02505 10.8825 0.553603 12.3324 0.172695C13.6907 -0.182123 14.8863 0.136169 15.9088 1.11714C15.9597 1.1641 16.0615 1.1954 16.1327 1.17975C16.8449 1.03365 17.5165 0.772753 18.1473 0.4075C18.1931 0.38141 18.2389 0.360539 18.3203 0.318796C18.0405 1.1954 17.5216 1.83721 16.8144 2.34856C17.4961 2.28073 18.1422 2.08245 18.7731 1.81633L18.8138 1.86329C18.5187 2.21811 18.2389 2.58336 17.9235 2.92253C17.6742 3.18864 17.3791 3.4078 17.1146 3.65826C17.0535 3.71565 17.0026 3.81479 17.0026 3.89306C17.0026 7.76475 15.512 10.8798 12.4392 13.1444C11.1419 14.0993 9.66147 14.6211 8.07928 14.8298C6.58357 15.0333 5.10821 14.9342 3.65829 14.5063C2.74255 14.235 1.88277 13.8384 1.07387 13.3166C1.05352 13.3062 1.04335 13.2905 0.997559 13.254C2.98166 13.4366 4.75209 12.9409 6.36481 11.6991C5.27101 11.6312 4.39088 11.2086 3.6939 10.405C3.36831 10.0293 3.12411 9.59624 2.96131 9.0901C3.50058 9.15793 4.0195 9.16837 4.55368 9.01705C2.54923 8.50048 1.6284 6.70552 1.67928 5.29146L1.68436 5.27581Z" fill="#B2A8EE"/>
</svg>
