<svg width="24" height="18" viewBox="0 0 24 18" fill="none" xmlns="http://www.w3.org/2000/svg">
<path fill-rule="evenodd" clip-rule="evenodd" d="M5.13204 0.25H11.8894C14.7151 0.25 16.688 2.19721 16.688 4.98773V13.0123C16.688 15.8028 14.7151 17.75 11.8894 17.75H5.13204C2.30635 17.75 0.333496 15.8028 0.333496 13.0123V4.98773C0.333496 2.19721 2.30635 0.25 5.13204 0.25ZM21.2845 3.02548C21.7966 2.76491 22.3975 2.79215 22.8863 3.1001C23.3752 3.40687 23.6668 3.93986 23.6668 4.52261V13.4781C23.6668 14.062 23.3752 14.5938 22.8863 14.9006C22.6192 15.0676 22.3205 15.1529 22.0195 15.1529C21.7686 15.1529 21.5178 15.0937 21.2833 14.974L19.5555 14.1023C18.9161 13.7778 18.5194 13.1263 18.5194 12.4026V5.59689C18.5194 4.87201 18.9161 4.22058 19.5555 3.89841L21.2845 3.02548Z" fill="#0CFDE4"/>
</svg>
