<svg width="12" height="13" viewBox="0 0 12 13" fill="none" xmlns="http://www.w3.org/2000/svg">
<path fill-rule="evenodd" clip-rule="evenodd" d="M4.04878 6.625C4.04878 7.69167 4.92195 8.55955 6 8.55955C7.07317 8.55955 7.94634 7.69167 7.94634 6.625C7.94634 5.55348 7.07317 4.68561 6 4.68561C4.92195 4.68561 4.04878 5.55348 4.04878 6.625ZM8.86829 3.64803C9.72195 4.30742 10.4488 5.27227 10.9707 6.47955C11.0098 6.57167 11.0098 6.67833 10.9707 6.76561C9.92683 9.18015 8.06829 10.625 6 10.625H5.99512C3.93171 10.625 2.07317 9.18015 1.02927 6.76561C0.990244 6.67833 0.990244 6.57167 1.02927 6.47955C2.07317 4.065 3.93171 2.625 5.99512 2.625H6C7.03415 2.625 8.01463 2.98379 8.86829 3.64803ZM6.00059 7.83121C6.66888 7.83121 7.21522 7.28818 7.21522 6.62393C7.21522 5.95484 6.66888 5.41181 6.00059 5.41181C5.94205 5.41181 5.88351 5.41666 5.82985 5.42636C5.81034 5.95969 5.37132 6.38636 4.82985 6.38636H4.80546C4.79083 6.46393 4.78107 6.54151 4.78107 6.62393C4.78107 7.28818 5.32741 7.83121 6.00059 7.83121Z" fill="#FAE8DC"/>
</svg>
